<?xml version="1.0" encoding="UTF-8" standalone="no"?>

<svg
   width="33.799992mm"
   height="10.189985mm"
   viewBox="0 0 33.799992 10.189985"
   version="1.1"
   id="svg1"
   xmlns:inkscape="http://www.inkscape.org/namespaces/inkscape"
   xmlns:sodipodi="http://sodipodi.sourceforge.net/DTD/sodipodi-0.dtd"
   xmlns="http://www.w3.org/2000/svg"
   xmlns:svg="http://www.w3.org/2000/svg">
  <sodipodi:namedview
     id="namedview1"
     pagecolor="#ffffff"
     bordercolor="#ffffff"
     borderopacity="0.25"
     inkscape:showpageshadow="2"
     inkscape:pageopacity="0.0"
     inkscape:pagecheckerboard="false"
     inkscape:deskcolor="#d1d1d1"
     inkscape:document-units="mm" />
  <defs
     id="defs1">
    <clipPath
       clipPathUnits="userSpaceOnUse"
       id="clipPath208">
      <path
         d="m 82.277,391.343 h 95.811 v 28.885 H 82.277 Z"
         transform="translate(-176.58381,-409.92711)"
         id="path208" />
    </clipPath>
  </defs>
  <g
     inkscape:label="Warstwa 1"
     inkscape:groupmode="layer"
     id="layer1"
     transform="translate(-88.106255,-143.40417)">
    <path
       id="path207"
       d="M 0,0 H -0.258 L -0.264,0.47 H 0 C 0.202,0.47 0.274,0.382 0.274,0.245 0.274,0.21 0.267,0.176 0.252,0.144 0.238,0.113 0.217,0.085 0.191,0.062 0.165,0.039 0.135,0.021 0.102,0.011 0.069,0 0.034,-0.004 0,0 m 0.542,0.268 c 0,0.222 -0.131,0.431 -0.519,0.431 l -0.532,0.003 v -1.499 h 0.238 v 0.582 h 0.304 l 0.293,-0.582 h 0.298 l -0.35,0.653 c 0.08,0.035 0.148,0.093 0.196,0.166 0.047,0.073 0.072,0.159 0.072,0.246 m -1.578,-1.036 c -0.14,0.204 -0.215,0.446 -0.218,0.693 -0.007,0.167 0.02,0.334 0.081,0.49 0.06,0.156 0.152,0.298 0.269,0.417 0.118,0.119 0.259,0.212 0.415,0.274 C -0.334,1.168 -0.167,1.197 0,1.192 0.247,1.192 0.489,1.118 0.695,0.981 0.901,0.844 1.062,0.649 1.157,0.421 1.252,0.192 1.278,-0.059 1.231,-0.302 1.183,-0.545 1.065,-0.768 0.891,-0.944 0.717,-1.12 0.495,-1.24 0.252,-1.29 0.01,-1.34 -0.242,-1.317 -0.471,-1.224 -0.7,-1.131 -0.897,-0.972 -1.036,-0.768 m 2.285,-0.145 c 0.166,0.248 0.255,0.54 0.256,0.838 C 1.511,0.125 1.477,0.323 1.404,0.509 1.33,0.695 1.22,0.864 1.079,1.005 0.938,1.147 0.769,1.258 0.584,1.332 0.398,1.407 0.2,1.442 0,1.437 -0.298,1.437 -0.59,1.349 -0.839,1.184 -1.087,1.019 -1.281,0.784 -1.395,0.508 -1.51,0.233 -1.541,-0.07 -1.483,-0.363 c 0.057,-0.293 0.2,-0.562 0.411,-0.773 0.21,-0.212 0.479,-0.356 0.771,-0.415 0.293,-0.058 0.596,-0.029 0.872,0.084 0.276,0.114 0.512,0.307 0.678,0.554 M -5.08,-2.909 -8.058,-9.266 h -1.286 l -2.939,6.301 v -6.618 h -2.184 V 1.299 h 2.178 l 3.657,-7.852 3.535,7.852 h 2.198 V -9.579 H -5.08 Z m -18.535,-2.746 1.485,4.356 1.519,-4.356 z m -1.339,-3.928 0.719,2.113 4.247,0.003 0.738,-2.112 h 2.468 l -4.195,10.878 h -2.285 l -4.082,-10.882 z m -9.425,8.923 v -2.451 h 4.361 V -5.07 h -4.361 v -2.554 h 5.06 v -1.959 h -7.339 V 1.299 h 7.339 V -0.66 Z m -8.101,-8.926 v 8.926 h 3.301 v 1.959 h -8.887 V -0.66 h 3.301 v -8.926 z m -7.565,10.004 -0.979,-1.701 c -0.78,0.527 -1.697,0.816 -2.638,0.832 -1.009,0 -1.633,-0.414 -1.633,-1.162 0,-0.768 0.794,-1.038 2.038,-1.462 v 0 c 0.225,-0.076 0.465,-0.158 0.718,-0.249 1.77,-0.627 2.785,-1.361 2.785,-2.984 0,-2.217 -1.743,-3.461 -4.244,-3.461 -1.341,-0.004 -2.661,0.341 -3.827,1.003 l 0.705,1.887 c 0.927,-0.49 1.956,-0.755 3.004,-0.774 1.322,0 1.959,0.486 1.959,1.208 0,0.765 -0.821,1.035 -2.173,1.478 h -0.001 -10e-4 c -0.106,0.035 -0.216,0.071 -0.329,0.109 -1.766,0.587 -2.987,1.361 -2.987,3.157 0,2.021 1.632,3.183 3.95,3.183 1.299,0.037 2.577,-0.335 3.653,-1.064 m -27.347,0.675 c -0.3,-0.448 -0.46,-0.975 -0.46,-1.514 l -0.016,0.006 c -0.001,-0.36 0.069,-0.716 0.207,-1.049 0.138,-0.332 0.34,-0.634 0.595,-0.888 0.255,-0.254 0.558,-0.455 0.891,-0.592 0.333,-0.136 0.689,-0.206 1.049,-0.203 0.54,0 1.067,0.16 1.515,0.459 0.448,0.3 0.798,0.725 1.004,1.224 0.206,0.498 0.26,1.046 0.155,1.575 -0.105,0.528 -0.365,1.014 -0.746,1.396 -0.381,0.381 -0.867,0.64 -1.396,0.746 -0.529,0.105 -1.077,0.051 -1.575,-0.155 -0.498,-0.207 -0.924,-0.556 -1.223,-1.005 m 5.28,0.504 c 0.399,-0.597 0.611,-1.3 0.61,-2.018 -0.001,-0.962 -0.384,-1.883 -1.064,-2.563 -0.68,-0.68 -1.601,-1.063 -2.563,-1.064 -0.718,-0.001 -1.421,0.211 -2.018,0.61 -0.598,0.399 -1.064,0.966 -1.339,1.629 -0.275,0.664 -0.347,1.394 -0.207,2.099 0.14,0.704 0.486,1.351 0.994,1.859 0.508,0.508 1.155,0.854 1.859,0.994 0.705,0.14 1.435,0.068 2.099,-0.207 0.663,-0.276 1.23,-0.741 1.629,-1.339 m -13.141,-13.214 -1.777,0.735 c 0.258,-0.536 0.666,-0.986 1.175,-1.295 0.509,-0.308 1.096,-0.462 1.691,-0.442 0.595,0.02 1.171,0.212 1.658,0.554 0.487,0.341 0.865,0.817 1.086,1.37 0.221,0.552 0.277,1.157 0.161,1.74 -0.117,0.584 -0.401,1.121 -0.817,1.546 -0.416,0.425 -0.948,0.719 -1.529,0.848 -0.581,0.128 -1.186,0.084 -1.743,-0.126 l 1.832,-0.757 c 0.553,-0.23 0.992,-0.671 1.22,-1.225 0.229,-0.554 0.228,-1.176 -0.003,-1.73 -0.23,-0.553 -0.671,-0.992 -1.225,-1.221 -0.554,-0.228 -1.176,-0.227 -1.729,0.003 m 5.341,21.918 c -3.63,-10e-4 -7.126,-1.368 -9.794,-3.83 -2.667,-2.461 -4.31,-5.837 -4.601,-9.455 l 7.741,-3.203 c 0.677,0.465 1.48,0.713 2.302,0.712 h 0.228 l 3.442,4.988 v 0.072 c 0.003,1.077 0.326,2.129 0.927,3.022 0.602,0.894 1.454,1.589 2.45,1.999 0.996,0.409 2.091,0.514 3.147,0.302 1.056,-0.213 2.025,-0.733 2.785,-1.496 0.76,-0.763 1.277,-1.734 1.486,-2.79 0.208,-1.057 0.099,-2.151 -0.314,-3.146 -0.413,-0.995 -1.111,-1.844 -2.007,-2.442 -0.896,-0.598 -1.948,-0.917 -3.025,-0.917 h -0.124 l -4.898,-3.504 v -0.192 c 0.003,-1.016 -0.373,-1.996 -1.054,-2.75 -0.68,-0.754 -1.618,-1.227 -2.628,-1.328 -1.011,-0.1 -2.023,0.179 -2.839,0.783 -0.816,0.605 -1.378,1.492 -1.576,2.488 l -5.534,2.286 c 0.733,-2.586 2.172,-4.916 4.156,-6.728 1.984,-1.812 4.435,-3.035 7.076,-3.531 2.641,-0.496 5.368,-0.245 7.874,0.724 2.507,0.969 4.693,2.618 6.313,4.762 1.621,2.144 2.611,4.697 2.86,7.372 0.249,2.676 -0.253,5.368 -1.451,7.774 -1.197,2.406 -3.042,4.43 -5.326,5.844 -2.285,1.415 -4.919,2.164 -7.606,2.164 z"
       style="fill:#ffffff;fill-opacity:1;fill-rule:evenodd;stroke:none"
       transform="matrix(0.35277776,0,0,-0.35277776,121.3756,147.03809)"
       clip-path="url(#clipPath208)" />
  </g>
</svg>
